<?xml version="1.0" standalone="no"?>
<svg xmlns:xlink="http://www.w3.org/1999/xlink" id="wave" style="transform:rotate(0deg); transition: 0.3s" viewBox="0 0 1440 320" version="1.1" xmlns="http://www.w3.org/2000/svg"><defs><linearGradient id="sw-gradient-0" x1="0" x2="0" y1="1" y2="0"><stop stop-color="rgba(71, 75, 255, 1)" offset="0%"/><stop stop-color="rgba(243.936, 0, 157.517, 1)" offset="100%"/></linearGradient></defs><path style="transform:translate(0, 0px); opacity:1" fill="url(#sw-gradient-0)" d="M0,192L40,202.7C80,213,160,235,240,245.3C320,256,400,256,480,245.3C560,235,640,213,720,186.7C800,160,880,128,960,144C1040,160,1120,224,1200,229.3C1280,235,1360,181,1440,160C1520,139,1600,149,1680,176C1760,203,1840,245,1920,256C2000,267,2080,245,2160,245.3C2240,245,2320,267,2400,250.7C2480,235,2560,181,2640,176C2720,171,2800,213,2880,218.7C2960,224,3040,192,3120,176C3200,160,3280,160,3360,154.7C3440,149,3520,139,3600,160C3680,181,3760,235,3840,261.3C3920,288,4000,288,4080,240C4160,192,4240,96,4320,64C4400,32,4480,64,4560,112C4640,160,4720,224,4800,218.7C4880,213,4960,139,5040,112C5120,85,5200,107,5280,106.7C5360,107,5440,85,5520,112C5600,139,5680,213,5720,250.7L5760,288L5760,320L5720,320C5680,320,5600,320,5520,320C5440,320,5360,320,5280,320C5200,320,5120,320,5040,320C4960,320,4880,320,4800,320C4720,320,4640,320,4560,320C4480,320,4400,320,4320,320C4240,320,4160,320,4080,320C4000,320,3920,320,3840,320C3760,320,3680,320,3600,320C3520,320,3440,320,3360,320C3280,320,3200,320,3120,320C3040,320,2960,320,2880,320C2800,320,2720,320,2640,320C2560,320,2480,320,2400,320C2320,320,2240,320,2160,320C2080,320,2000,320,1920,320C1840,320,1760,320,1680,320C1600,320,1520,320,1440,320C1360,320,1280,320,1200,320C1120,320,1040,320,960,320C880,320,800,320,720,320C640,320,560,320,480,320C400,320,320,320,240,320C160,320,80,320,40,320L0,320Z"/><defs><linearGradient id="sw-gradient-1" x1="0" x2="0" y1="1" y2="0"><stop stop-color="rgba(184.498, 62, 243, 1)" offset="0%"/><stop stop-color="rgba(114.159, 29.688, 109.987, 1)" offset="100%"/></linearGradient></defs><path style="transform:translate(0, 50px); opacity:0.9" fill="url(#sw-gradient-1)" d="M0,96L40,122.7C80,149,160,203,240,202.7C320,203,400,149,480,133.3C560,117,640,139,720,133.3C800,128,880,96,960,112C1040,128,1120,192,1200,229.3C1280,267,1360,277,1440,272C1520,267,1600,245,1680,202.7C1760,160,1840,96,1920,101.3C2000,107,2080,181,2160,181.3C2240,181,2320,107,2400,85.3C2480,64,2560,96,2640,112C2720,128,2800,128,2880,112C2960,96,3040,64,3120,53.3C3200,43,3280,53,3360,96C3440,139,3520,213,3600,240C3680,267,3760,245,3840,240C3920,235,4000,245,4080,229.3C4160,213,4240,171,4320,149.3C4400,128,4480,128,4560,106.7C4640,85,4720,43,4800,21.3C4880,0,4960,0,5040,0C5120,0,5200,0,5280,0C5360,0,5440,0,5520,48C5600,96,5680,192,5720,240L5760,288L5760,320L5720,320C5680,320,5600,320,5520,320C5440,320,5360,320,5280,320C5200,320,5120,320,5040,320C4960,320,4880,320,4800,320C4720,320,4640,320,4560,320C4480,320,4400,320,4320,320C4240,320,4160,320,4080,320C4000,320,3920,320,3840,320C3760,320,3680,320,3600,320C3520,320,3440,320,3360,320C3280,320,3200,320,3120,320C3040,320,2960,320,2880,320C2800,320,2720,320,2640,320C2560,320,2480,320,2400,320C2320,320,2240,320,2160,320C2080,320,2000,320,1920,320C1840,320,1760,320,1680,320C1600,320,1520,320,1440,320C1360,320,1280,320,1200,320C1120,320,1040,320,960,320C880,320,800,320,720,320C640,320,560,320,480,320C400,320,320,320,240,320C160,320,80,320,40,320L0,320Z"/><defs><linearGradient id="sw-gradient-2" x1="0" x2="0" y1="1" y2="0"><stop stop-color="rgba(196.124, 196.124, 196.124, 1)" offset="0%"/><stop stop-color="rgba(255, 255, 255, 1)" offset="100%"/></linearGradient></defs><path style="transform:translate(0, 100px); opacity:0.8" fill="url(#sw-gradient-2)" d="M0,288L40,256C80,224,160,160,240,133.3C320,107,400,117,480,117.3C560,117,640,107,720,112C800,117,880,139,960,154.7C1040,171,1120,181,1200,154.7C1280,128,1360,64,1440,69.3C1520,75,1600,149,1680,181.3C1760,213,1840,203,1920,170.7C2000,139,2080,85,2160,74.7C2240,64,2320,96,2400,96C2480,96,2560,64,2640,74.7C2720,85,2800,139,2880,160C2960,181,3040,171,3120,138.7C3200,107,3280,53,3360,48C3440,43,3520,85,3600,128C3680,171,3760,213,3840,197.3C3920,181,4000,107,4080,101.3C4160,96,4240,160,4320,160C4400,160,4480,96,4560,64C4640,32,4720,32,4800,74.7C4880,117,4960,203,5040,197.3C5120,192,5200,96,5280,74.7C5360,53,5440,107,5520,117.3C5600,128,5680,96,5720,80L5760,64L5760,320L5720,320C5680,320,5600,320,5520,320C5440,320,5360,320,5280,320C5200,320,5120,320,5040,320C4960,320,4880,320,4800,320C4720,320,4640,320,4560,320C4480,320,4400,320,4320,320C4240,320,4160,320,4080,320C4000,320,3920,320,3840,320C3760,320,3680,320,3600,320C3520,320,3440,320,3360,320C3280,320,3200,320,3120,320C3040,320,2960,320,2880,320C2800,320,2720,320,2640,320C2560,320,2480,320,2400,320C2320,320,2240,320,2160,320C2080,320,2000,320,1920,320C1840,320,1760,320,1680,320C1600,320,1520,320,1440,320C1360,320,1280,320,1200,320C1120,320,1040,320,960,320C880,320,800,320,720,320C640,320,560,320,480,320C400,320,320,320,240,320C160,320,80,320,40,320L0,320Z"/></svg>